<svg xmlns="http://www.w3.org/2000/svg" viewBox="0 0 160 160" role="img" aria-labelledby="title desc">
  <title id="title">Calm demo avatar</title>
  <desc id="desc">A neutral abstract avatar for the landing page demo inspector.</desc>
  <defs>
    <linearGradient id="bg" x1="24" y1="14" x2="136" y2="146" gradientUnits="userSpaceOnUse">
      <stop offset="0" stop-color="#eef7ff"/>
      <stop offset="0.52" stop-color="#dfeee7"/>
      <stop offset="1" stop-color="#f7f1e8"/>
    </linearGradient>
    <linearGradient id="figure" x1="43" y1="38" x2="118" y2="130" gradientUnits="userSpaceOnUse">
      <stop offset="0" stop-color="#3f7d73"/>
      <stop offset="1" stop-color="#275d6f"/>
    </linearGradient>
    <filter id="softShadow" x="-20%" y="-20%" width="140%" height="140%" color-interpolation-filters="sRGB">
      <feDropShadow dx="0" dy="8" stdDeviation="10" flood-color="#275d6f" flood-opacity="0.14"/>
    </filter>
  </defs>
  <rect width="160" height="160" rx="80" fill="url(#bg)"/>
  <circle cx="38" cy="42" r="26" fill="#ffffff" opacity="0.46"/>
  <circle cx="124" cy="118" r="34" fill="#ffffff" opacity="0.34"/>
  <path d="M35 123c7.2-23.8 24-38.5 45-38.5s37.8 14.7 45 38.5c-10.8 9.6-26.6 15-45 15s-34.2-5.4-45-15Z" fill="url(#figure)" filter="url(#softShadow)"/>
  <circle cx="80" cy="62" r="29" fill="url(#figure)" filter="url(#softShadow)"/>
  <path d="M58 58c4.9-13 16.5-20 31-19 10 .8 18.2 6.1 22.1 14.2-7.4-3.9-16.5-3.8-27.2.4-10.1 4-18.8 5.4-25.9 4.4Z" fill="#f8fbf8" opacity="0.5"/>
  <circle cx="69" cy="66" r="3.6" fill="#f8fbf8" opacity="0.92"/>
  <circle cx="91" cy="66" r="3.6" fill="#f8fbf8" opacity="0.92"/>
  <path d="M69 80c6.4 5.8 15.6 5.8 22 0" fill="none" stroke="#f8fbf8" stroke-width="5" stroke-linecap="round" opacity="0.86"/>
</svg>
